<mxfile host="app.diagrams.net" agent="Mozilla/5.0 (Windows NT 10.0; Win64; x64) AppleWebKit/537.36 (KHTML, like Gecko) Chrome/127.0.0.0 Safari/537.36" version="24.7.6">
  <diagram id="-ljSxomluclja3WIcSHv" name="Page-1">
    <mxGraphModel dx="1323" dy="743" grid="1" gridSize="10" guides="1" tooltips="1" connect="1" arrows="1" fold="1" page="1" pageScale="1" pageWidth="850" pageHeight="1100" math="0" shadow="0">
      <root>
        <mxCell id="0" />
        <mxCell id="1" parent="0" />
        <mxCell id="ulrFkdnf0PlGz6hj-BaM-8" value="" style="edgeStyle=orthogonalEdgeStyle;rounded=0;orthogonalLoop=1;jettySize=auto;html=1;strokeColor=#000000;" edge="1" parent="1" source="ulrFkdnf0PlGz6hj-BaM-1" target="ulrFkdnf0PlGz6hj-BaM-7">
          <mxGeometry relative="1" as="geometry" />
        </mxCell>
        <mxCell id="ulrFkdnf0PlGz6hj-BaM-1" value="" style="rounded=0;whiteSpace=wrap;html=1;fillColor=none;strokeColor=#000000;" vertex="1" parent="1">
          <mxGeometry x="80" y="80" width="240" height="120" as="geometry" />
        </mxCell>
        <mxCell id="ulrFkdnf0PlGz6hj-BaM-10" value="" style="edgeStyle=orthogonalEdgeStyle;rounded=0;orthogonalLoop=1;jettySize=auto;html=1;strokeColor=#000000;" edge="1" parent="1" source="ulrFkdnf0PlGz6hj-BaM-7" target="ulrFkdnf0PlGz6hj-BaM-9">
          <mxGeometry relative="1" as="geometry" />
        </mxCell>
        <mxCell id="ulrFkdnf0PlGz6hj-BaM-7" value="" style="rounded=0;whiteSpace=wrap;html=1;fillColor=none;strokeColor=#000000;" vertex="1" parent="1">
          <mxGeometry x="400" y="80" width="240" height="120" as="geometry" />
        </mxCell>
        <mxCell id="ulrFkdnf0PlGz6hj-BaM-9" value="" style="rounded=0;whiteSpace=wrap;html=1;fillColor=none;strokeColor=#000000;" vertex="1" parent="1">
          <mxGeometry x="720" y="80" width="240" height="120" as="geometry" />
        </mxCell>
      </root>
    </mxGraphModel>
  </diagram>
</mxfile>
